#N canvas 390 147 916 513 10;
#X obj 651 471 dac~, f 11;
#X msg 839 337 0 44100;
#X msg 838 296 bang;
#X msg 837 357 44100 1000;
#X msg 837 379 stop;
#X obj 651 453 *~ 0;
#X obj 714 453 *~ 0;
#X floatatom 837 415 5 0 0 0 level - -;
#X obj 837 437 * 0.01;
#X obj 651 397 tabplay~;
#X obj 651 279 route array;
#X obj 651 297 unpack s s, f 11;
#X msg 713 315 set \$1;
#X msg 651 315 set \$1;
#X obj 713 397 tabplay~;
#X obj 651 261 r \$0-to;
#X obj 75 291 bng 15 250 50 0 empty empty 1)open_mp3_file 17 7 0 10
#fcfcfc #000000 #000000;
#X obj 75 308 openpanel;
#N canvas 0 50 450 250 (subpatch) 0;
#X array Ch_l 1 float 2;
#X coords 0 1 1 -1 700 100 1 0 0;
#X restore 83 23 graph;
#N canvas 0 50 450 250 (subpatch) 0;
#X array Ch_r 1 float 2;
#X coords 0 1 1 -1 700 100 1 0 0;
#X restore 83 123 graph;
#X msg 488 307 redraw;
#X msg 379 307 decode;
#X obj 226 291 bng 15 250 50 0 empty empty 2)array 17 7 0 10 #fcfcfc
#000000 #000000;
#X obj 379 290 bng 15 250 50 0 empty empty 3)decode 17 7 0 10 #fcfcfc
#000000 #000000;
#X obj 488 290 bng 15 250 50 0 empty empty 4)redraw 17 7 0 10 #fcfcfc
#000000 #000000;
#X obj 75 344 s \$0-to;
#X obj 226 326 s \$0-to;
#X obj 379 325 s \$0-to;
#X obj 488 325 s \$0-to;
#X obj 480 404 r \$0-to;
#X msg 75 326 openfile \$1;
#X obj 480 444 print -n;
#X obj 480 424 n_mpg123;
#X msg 226 308 array Ch_l Ch_r;
#X obj 226 391 bng 15 250 50 0 empty empty 2)array 17 7 0 10 #fcfcfc
#000000 #000000;
#X obj 226 426 s \$0-to;
#X obj 83 226 table Ch_l2;
#X obj 83 244 table Ch_r2;
#X msg 226 408 array Ch_l2 Ch_r2;
#X msg 839 316 2.3441e+06;
#X connect 1 0 9 0;
#X connect 1 0 14 0;
#X connect 2 0 9 0;
#X connect 2 0 14 0;
#X connect 3 0 9 0;
#X connect 3 0 14 0;
#X connect 4 0 9 0;
#X connect 4 0 14 0;
#X connect 5 0 0 0;
#X connect 6 0 0 1;
#X connect 7 0 8 0;
#X connect 8 0 5 1;
#X connect 8 0 6 1;
#X connect 9 0 5 0;
#X connect 10 0 11 0;
#X connect 11 0 13 0;
#X connect 11 1 12 0;
#X connect 12 0 14 0;
#X connect 13 0 9 0;
#X connect 14 0 6 0;
#X connect 15 0 10 0;
#X connect 16 0 17 0;
#X connect 17 0 30 0;
#X connect 20 0 28 0;
#X connect 21 0 27 0;
#X connect 22 0 33 0;
#X connect 23 0 21 0;
#X connect 24 0 20 0;
#X connect 29 0 32 0;
#X connect 30 0 25 0;
#X connect 32 0 31 0;
#X connect 33 0 26 0;
#X connect 34 0 38 0;
#X connect 38 0 35 0;
#X connect 39 0 9 0;
#X connect 39 0 14 0;
